<?xml version="1.0" standalone="no"?>
<!DOCTYPE svg PUBLIC "-//W3C//DTD SVG 20010904//EN"
 "http://www.w3.org/TR/2001/REC-SVG-20010904/DTD/svg10.dtd">
<svg version="1.0" xmlns="http://www.w3.org/2000/svg"
 width="450.000000pt" height="450.000000pt" viewBox="0 0 450.000000 450.000000"
 preserveAspectRatio="xMidYMid meet">

<g transform="translate(0.000000,450.000000) scale(0.100000,-0.100000)"
fill="#000000" stroke="none">
<path d="M2070 3859 c-186 -21 -364 -74 -545 -164 -432 -215 -750 -621 -854
-1093 -106 -475 9 -979 309 -1357 56 -70 192 -205 270 -268 306 -245 734 -374
1132 -339 450 39 833 241 1122 592 80 97 117 152 182 275 145 274 210 618 174
915 -51 406 -208 722 -496 1000 -217 209 -483 351 -767 410 -184 39 -357 48
-527 29z m912 -876 c112 -111 148 -154 148 -173 0 -19 -130 -155 -612 -637
-337 -337 -617 -613 -623 -613 -13 0 -335 322 -335 335 0 5 276 285 613 622
481 482 617 613 637 613 19 0 61 -36 172 -147z m-1156 -1490 c-1 -1 -88 -25
-192 -53 -104 -28 -204 -55 -222 -61 -18 -6 -35 -9 -38 -7 -3 4 79 324 99 388
3 8 8 28 12 44 6 29 9 27 175 -139 93 -93 168 -170 166 -172z"/>
</g>
</svg>
